<svg width="21" height="13" fill="none" xmlns="http://www.w3.org/2000/svg"><path d="M.35779 1.01142h3.66425c.06968.0009.13765.02238.19586.06189.0582.03951.10419.0954.13252.16103.80466 1.8349 1.8474 3.54861 3.09961 5.09413.02408.04005.0584.07246.09921.09367a.24192.24192 0 00.13205.02657.24383.24383 0 00.12611-.04834c.03692-.02777.06568-.0655.08313-.10905.40046-.96598 1.09728-3.30251-.28032-4.99093a.29632.29632 0 01-.05994-.12001.30179.30179 0 01-.00142-.13497.29685.29685 0 01.0574-.12132.28557.28557 0 01.10408-.08193C8.34781.53138 9.04227.36437 9.74735.35227 10.4524.34017 11.1519.48326 11.7991.772c.1367.06225.2529.164.3346.29296.0818.12895.1255.27955.1259.43359l.3124 4.84645a.35482.35482 0 00.0314.14861.34554.34554 0 00.0901.12044.33288.33288 0 00.1314.06911.32662.32662 0 00.1475.00447c1.5298-.33438 2.4309-2.69981 3.3239-5.16432.0518-.14913.1468-.27823.2721-.3698.1254-.09157.2751-.14118.4287-.14208h3.3719a.43712.43712 0 01.1901.04076c.0597.02774.1128.06863.1556.11977a.46645.46645 0 01.0918.1763.4746.4746 0 01.011.19982c-.3163 1.75034-2.0263 4.02082-2.9193 5.11478-.1494.18247-.2313.41351-.2313.65225s.0819.46979.2313.65225l3.0155 3.71535c.0461.0602.0751.1324.0836.2086a.4238.4238 0 01-.0352.2228c-.0316.0694-.0814.1284-.1437.1703-.0623.042-.1347.0652-.2091.067h-3.8164c-.155.0005-.3084-.0323-.4504-.0963-.142-.0639-.2696-.1577-.3746-.2752l-2.6671-2.29112a.36666.36666 0 00-.1133-.09729.3565.3565 0 00-.1415-.04304.3541.3541 0 00-.1464.01831.36229.36229 0 00-.1274.07662c-.3324.41282-.3084.92472-.4645 2.08472-.0271.176-.1149.3361-.2474.4506-.1324.1146-.3006.1759-.4735.1727h-2.603c-.3709.0025-.73763-.0807-1.07324-.2435C6.41282 11.3772 2.30405 8.78472.0214 1.5233a.39505.39505 0 01-.01838-.17704.39118.39118 0 01.06107-.16655c.03273-.04981.07637-.091.1274-.12023a.36388.36388 0 01.1663-.04806z" fill="#383452"/></svg>