<svg width="21" height="17" fill="none" xmlns="http://www.w3.org/2000/svg"><path d="M0 14.9569a11.82944 11.82944 0 006.10953 1.8665 11.83027 11.83027 0 006.18917-1.5823 11.82985 11.82985 0 004.4641-4.5697A11.83014 11.83014 0 0018.2 4.44691a8.66885 8.66885 0 002.08-2.14999 8.36973 8.36973 0 01-2.39.64999A4.14979 4.14979 0 0019.72.64693a8.41946 8.41946 0 01-2.65 1A4.15975 4.15975 0 0014.7122.40405a4.16005 4.16005 0 00-2.6282.44327 4.16024 4.16024 0 00-1.8197 1.94742A4.15983 4.15983 0 0010 5.44691 11.82012 11.82012 0 015.25421 4.1868a11.82008 11.82008 0 01-3.82422-3.07988 4.15 4.15 0 001.29001 5.55 4.14016 4.14016 0 01-1.89001-.52A4.17004 4.17004 0 004.17 10.2669a4.08956 4.08956 0 01-1.88.07 4.15981 4.15981 0 001.48071 2.0699 4.1592 4.1592 0 002.40927.8201 8.33905 8.33905 0 01-2.91693 1.4832A8.33746 8.33746 0 010 14.9569z" fill="#383452"/></svg>