<svg width="20" height="20" fill="none" xmlns="http://www.w3.org/2000/svg"><path d="M4.32086 6.72119h-3.94V19.4412h3.94V6.72119zM2.33004 5.05148A2.35 2.35 0 101.4554.52851 2.35 2.35 0 00.00002 2.70147a2.33994 2.33994 0 00.67829 1.65756 2.34002 2.34002 0 001.65173.69245zM10.6206 12.7611c0-1.79.82-2.85002 2.4-2.85002s2.14 1.00002 2.14 2.85002v6.68h3.97v-8.05c0-3.41002-1.93-5.06002-4.63-5.06002a4.41997 4.41997 0 00-2.1925.54384 4.4199 4.4199 0 00-1.6375 1.55615V6.72108H6.89062V19.4411h3.77998l-.05-6.68z" fill="#383452"/></svg>