<svg width="179" height="46" fill="none" xmlns="http://www.w3.org/2000/svg"><path fill-rule="evenodd" clip-rule="evenodd" d="M67.8184 16.6397h-3.0253v4.0339h3.0253c1.1139 0 2.0169-.903 2.0169-2.017 0-1.1139-.903-2.0169-2.0169-2.0169zm-7.8155 0v17.1437h4.7902v-8.3197h3.0253c3.7594 0 6.8071-3.0476 6.8071-6.8071 0-3.7594-3.0477-6.807-6.8071-6.807h-7.8155v4.7901zm61.2631 0h2.395c3.412 0 6.177 2.7655 6.177 6.1768s-2.765 6.1768-6.177 6.1768h-2.395V16.6397zm-4.79-4.7901H123.661c6.057 0 10.967 4.9101 10.967 10.9669 0 6.0569-4.91 10.9669-10.967 10.9669H116.476V11.8496zm38.069 16.2613V23.951h-1.26v-4.7901h1.26v-5.2944l4.79-2.0169v7.3113h2.017v4.7901h-2.017v4.1599c0 .7658.621 1.3866 1.387 1.3866h1.134v4.7901h-1.134c-3.411 0-6.177-2.7654-6.177-6.1767zM81.4325 14.2447c0 1.3227-1.0723 2.395-2.3951 2.395-1.3227 0-2.395-1.0723-2.395-2.395 0-1.3228 1.0723-2.3951 2.395-2.3951 1.3228 0 2.3951 1.0723 2.3951 2.3951zm-4.7901 19.5387V19.1609h4.7901v14.6225h-4.7901zm22.1859 0V11.8496h4.7897v10.8223l3.665-3.511h6.925l-6.361 6.0938 6.612 8.5287h-6.061l-4.029-5.1969-.751.7188v4.4781h-4.7897zm-7.5562-15.1267c2.1638 0 4.1224.8776 5.5386 2.2961l-3.4626 3.3139c-.542-.5081-1.2716-.8199-2.076-.8199-1.679 0-3.0326 1.3587-3.0326 3.0253 0 1.6667 1.3536 3.0254 3.0326 3.0254.8057 0 1.5363-.3128 2.0785-.8223l3.4615 3.3149c-1.4163 1.4193-3.3755 2.2975-5.54 2.2975-4.3203 0-7.8227-3.4991-7.8227-7.8155 0-4.3163 3.5024-7.8154 7.8227-7.8154zm52.6839 10.8408c1.671 0 3.026-1.3545 3.026-3.0254 0-1.6708-1.355-3.0253-3.026-3.0253-1.67 0-3.025 1.3545-3.025 3.0253 0 1.6709 1.355 3.0254 3.025 3.0254zm0-10.8408c4.232 0 7.679 3.3636 7.812 7.5633h.004v7.5634h-4.79v-.7563s-.374.6601-1.463 1.1043c-.406.0823-.823.1333-1.249.1501a.9593.9593 0 00-.061-.0019l-.01.0043c-.081.0025-.161.0037-.243.0037-4.316 0-7.815-3.4991-7.815-7.8155 0-4.3163 3.499-7.8154 7.815-7.8154zm30.254 7.8154c0 1.6709-1.355 3.0254-3.025 3.0254-1.671 0-3.026-1.3545-3.026-3.0254 0-1.6708 1.355-3.0253 3.026-3.0253 1.67 0 3.025 1.3545 3.025 3.0253zm4.786-.2521c-.133-4.1997-3.579-7.5633-7.811-7.5633-4.317 0-7.816 3.4991-7.816 7.8154 0 4.3164 3.499 7.8155 7.816 7.8155.081 0 .162-.0012.242-.0037l.01-.0043c.022 0 .042.0007.061.0019.426-.0168.843-.0678 1.249-.1501 1.089-.4442 1.463-1.1043 1.463-1.1043v.7563H179V26.22h-.004zM17.3955 5.04225C17.3955 2.25749 19.653 0 22.4378 0h.2521C35.2213 0 45.38 10.1587 45.38 22.6901v.5043c0 12.5314-10.1587 22.6901-22.6901 22.6901h-.2521c-2.7848 0-5.0423-2.2575-5.0423-5.0423 0-2.7847 2.2575-5.0422 5.0423-5.0422h.2521c6.9619 0 12.6056-5.6437 12.6056-12.6056v-.5043c0-6.9619-5.6437-12.6056-12.6056-12.6056h-.2521c-2.7848 0-5.0423-2.25749-5.0423-5.04225z" fill="#fff"/><path fill-rule="evenodd" clip-rule="evenodd" d="M21.6817 27.9844c-6.405 0-11.5972 5.1922-11.5972 11.5972v1.2605c0 2.7848-2.25749 5.0423-5.04225 5.0423S0 43.6269 0 40.8421v-1.2605c0-11.9745 9.70722-21.6817 21.6817-21.6817h.2521c2.7848 0 5.0422 2.2575 5.0422 5.0423 0 2.7847-2.2574 5.0422-5.0422 5.0422h-.2521zM5.04225 0c2.78476 0 5.04225 2.25749 5.04225 5.04225v6.80705c0 2.7847-2.25749 5.0422-5.04225 5.0422S0 14.6341 0 11.8493V5.04225C0 2.25749 2.25749 0 5.04225 0z" fill="#fff"/></svg>