<svg width="179" height="46" fill="none" xmlns="http://www.w3.org/2000/svg"><path fill-rule="evenodd" clip-rule="evenodd" d="M67.8184 16.6394h-3.0253v4.0338h3.0253c1.1139 0 2.0169-.903 2.0169-2.0169 0-1.1139-.903-2.0169-2.0169-2.0169zm-7.8155 0V33.783h4.7902v-8.3197h3.0253c3.7594 0 6.8071-3.0476 6.8071-6.807 0-3.7594-3.0477-6.8071-6.8071-6.8071h-7.8155v4.7902zm61.2631 0h2.395c3.412 0 6.177 2.7654 6.177 6.1767 0 3.4114-2.765 6.1768-6.177 6.1768h-2.395V16.6394zm-4.79-4.7902H123.661c6.057 0 10.967 4.9101 10.967 10.9669 0 6.0569-4.91 10.9669-10.967 10.9669H116.476V11.8492zm38.069 16.2613v-4.1598h-1.26v-4.7902h1.26v-5.2944l4.79-2.0169v7.3113h2.017v4.7902h-2.017v4.1598c0 .7658.621 1.3866 1.387 1.3866h1.134v4.7902h-1.134c-3.411 0-6.177-2.7655-6.177-6.1768zM81.4325 14.2443c0 1.3228-1.0723 2.3951-2.3951 2.3951-1.3227 0-2.395-1.0723-2.395-2.3951 0-1.3227 1.0723-2.3951 2.395-2.3951 1.3228 0 2.3951 1.0724 2.3951 2.3951zM76.6424 33.783V19.1605h4.7901V33.783h-4.7901zm22.1859 0V11.8492h4.7897v10.8223l3.665-3.511h6.925l-6.361 6.0939 6.612 8.5286h-6.061l-4.029-5.1968-.751.7187v4.4781h-4.7897zm-7.5561-15.1267c2.1637 0 4.1223.8777 5.5385 2.2961l-3.4626 3.3139c-.5419-.5081-1.2716-.8199-2.0759-.8199-1.6791 0-3.0327 1.3587-3.0327 3.0254 0 1.6666 1.3536 3.0253 3.0327 3.0253.8056 0 1.5362-.3127 2.0784-.8223l3.4615 3.3149c-1.4163 1.4193-3.3755 2.2976-5.5399 2.2976-4.3204 0-7.8228-3.4991-7.8228-7.8155s3.5024-7.8155 7.8228-7.8155zm52.6838 10.8408c1.671 0 3.026-1.3545 3.026-3.0253 0-1.6709-1.355-3.0254-3.026-3.0254-1.67 0-3.025 1.3545-3.025 3.0254 0 1.6708 1.355 3.0253 3.025 3.0253zm0-10.8408c4.232 0 7.679 3.3637 7.812 7.5634h.004v7.5633h-4.79v-.7563s-.374.6601-1.463 1.1043c-.406.0824-.823.1333-1.249.1501a.96282.96282 0 00-.061-.0018l-.01.0043c-.081.0024-.161.0037-.243.0037-4.316 0-7.815-3.4991-7.815-7.8155s3.499-7.8155 7.815-7.8155zm30.254 7.8155c0 1.6708-1.355 3.0253-3.025 3.0253-1.671 0-3.026-1.3545-3.026-3.0253 0-1.6709 1.355-3.0254 3.026-3.0254 1.67 0 3.025 1.3545 3.025 3.0254zm4.786-.2521c-.133-4.1997-3.579-7.5634-7.811-7.5634-4.317 0-7.816 3.4991-7.816 7.8155s3.499 7.8155 7.816 7.8155c.081 0 .162-.0013.242-.0037l.01-.0043c.022 0 .042.0006.061.0018.426-.0168.843-.0677 1.249-.1501 1.089-.4442 1.463-1.1043 1.463-1.1043v.7563H179v-7.5633h-.004z" fill="#383452"/><path fill-rule="evenodd" clip-rule="evenodd" d="M17.3955 5.04225C17.3955 2.25749 19.653 0 22.4378 0h.2521C35.2213 0 45.38 10.1587 45.38 22.6901v.5043c0 12.5314-10.1587 22.6901-22.6901 22.6901h-.2521c-2.7848 0-5.0423-2.2575-5.0423-5.0422 0-2.7848 2.2575-5.0423 5.0423-5.0423h.2521c6.9619 0 12.6056-5.6437 12.6056-12.6056v-.5043c0-6.9619-5.6437-12.6056-12.6056-12.6056h-.2521c-2.7848 0-5.0423-2.25749-5.0423-5.04225z" fill="url(#paint0_linear)"/><path fill-rule="evenodd" clip-rule="evenodd" d="M21.6817 27.9845c-6.405 0-11.5972 5.1922-11.5972 11.5972v1.2605c0 2.7848-2.25749 5.0423-5.04225 5.0423S0 43.627 0 40.8422v-1.2605C0 27.6072 9.70722 17.9 21.6817 17.9h.2521c2.7848 0 5.0423 2.2575 5.0423 5.0422 0 2.7848-2.2575 5.0423-5.0423 5.0423h-.2521z" fill="url(#paint1_linear)"/><path fill-rule="evenodd" clip-rule="evenodd" d="M5.04225 0c2.78476 0 5.04225 2.25749 5.04225 5.04225v6.80705c0 2.7848-2.25749 5.0422-5.04225 5.0422S0 14.6341 0 11.8493V5.04225C0 2.25749 2.25749 0 5.04225 0z" fill="url(#paint2_linear)"/><defs><linearGradient id="paint0_linear" x1="31.3878" y1=".12606" x2="31.3878" y2="46.3887" gradientUnits="userSpaceOnUse"><stop stop-color="#9E90FF"/><stop offset="1" stop-color="#6E5DEC"/></linearGradient><linearGradient id="paint1_linear" x1="26.2197" y1="21.0514" x2="2.52113" y2="44.75" gradientUnits="userSpaceOnUse"><stop stop-color="#F98697"/><stop offset="1" stop-color="#FF4A65"/></linearGradient><linearGradient id="paint2_linear" x1="5.16831" y1="5.04225" x2="5.16831" y2="11.8493" gradientUnits="userSpaceOnUse"><stop stop-color="#61DDF9"/><stop offset="1" stop-color="#4ED1FA"/></linearGradient></defs></svg>