<svg width="60" height="60" fill="none" xmlns="http://www.w3.org/2000/svg"><path fill-rule="evenodd" clip-rule="evenodd" d="M3 5.5C3 4.11929 4.11929 3 5.5 3H49v7.037H5.91481C4.305 10.037 3 8.73202 3 7.12221V5.5zm49-4v8.537H56.5295v12.537h3.4668v14.3481h-3.4668V50h-1.5v-1.5c0 1.5 0 1.5-.0002 1.5H21.9552C21.4499 55.6065 16.738 60 11 60 4.92487 60 0 55.0751 0 49c0-.1676.00375-.3343.01116-.5H0v-43C0 2.46243 2.46243 0 5.5 0H52v1.5zM3 41.4501C5.00554 39.3258 7.84794 38 11 38c5.3921 0 9.8781 3.8798 10.8186 9h31.7109V36.9221H40.1297V22.574h13.3998v-9.537H5.91481C4.855 13.037 3.8603 12.7583 3 12.2701v29.18zM43.1297 25.574h13.8666v8.3481H43.1297V25.574zm5.8299 4.1741c0 .9144-.7412 1.6556-1.6556 1.6556-.9143 0-1.6555-.7412-1.6555-1.6556 0-.9143.7412-1.6555 1.6555-1.6555.9144 0 1.6556.7412 1.6556 1.6555zM19 49c0 4.4183-3.5817 8-8 8-4.41828 0-8-3.5817-8-8s3.58172-8 8-8c4.4183 0 8 3.5817 8 8zm-9.5-1.5V43h3v4.5H17v3h-4.5V55h-3v-4.5H5v-3h4.5z" fill="#7B69FF"/></svg>