<svg width="60" height="60" fill="none" xmlns="http://www.w3.org/2000/svg"><path fill-rule="evenodd" clip-rule="evenodd" d="M0 0h8.5v3H3v5.5H0V0zm17.9629 5.75652C9.79406 8.04274 3.68591 15.2624 3.05404 24H13.021c.1542-5.4999 1.1514-10.5076 2.7314-14.282.6295-1.5039 1.3675-2.8501 2.2105-3.96148zm0 39.48698C9.79406 42.9573 3.68591 35.7376 3.05404 27H13.021c.1542 5.4999 1.1514 10.5076 2.7314 14.282.6295 1.5039 1.3675 2.8501 2.2105 3.9615zm.5568-5.1199C17.1188 36.7769 16.176 32.1782 16.0222 27H22v6h8.4185c-.5978 3.6999-1.6147 6.814-2.8592 9.0258C26.1369 44.5535 24.6699 45.5 23.5 45.5c-.7227 0-1.5451-.3435-2.4371-1.2447-.8973-.9067-1.7745-2.2953-2.5432-4.1317zM33.4547 33c-.6233 4.1404-1.7584 7.7912-3.2809 10.4969-.3473.6171-.7272 1.2054-1.1392 1.7475 3.9562-1.1065 7.4295-3.3702 10.0328-6.4056l-1.5789-4.0348L36.7826 33h-3.3279zm7.6564 0l1.2708.4973c.0699-.1647.1376-.3305.2032-.4973h-1.474zm4.6663 0a23.3449 23.3449 0 01-.6008 1.5908l10.5571 4.1311L60 40.3913l-4.3175 1.532-6.4651 2.2941-2.2941 6.4651L45.3913 55l-1.6694-4.2663-3.4378-8.7855C36.0204 46.2982 30.0753 49 23.5 49 10.5213 49 0 38.4787 0 25.5S10.5213 2 23.5 2c10.3579 0 19.1474 6.70004 22.2774 16H49v15h-3.2226zm-3.1922-15c-2.332-5.9297-7.3481-10.50905-13.5507-12.24414.4848.63826.9262 1.34136 1.3231 2.082C31.7853 10.5018 32.8557 14.0209 33.4547 18h9.1305zm-12.1667 0c-.5718-3.5394-1.5284-6.5494-2.7051-8.74506C26.2521 6.52825 24.7168 5.5 23.5 5.5c-.7227 0-1.5451.34351-2.4371 1.24473-.8973.9067-1.7745 2.29525-2.5432 4.13167C17.1188 14.2231 16.176 18.8218 16.0222 24H22v-6h8.4185zm14.8354 28.4162l1.1362-3.202.4777-1.3464 1.3464-.4777 3.202-1.1362-10.1237-3.9614 3.9614 10.1237zM31 27h-3v-3h3v3zm6 0h-3v-3h3v3zm3 0h3v-3h-3v3zm-15-6h21v9H25v-9zM60 1.5V0h-8.5v3H57v5.5h3v-7zM60 60h-8.5v-3H57v-5.5h3V60zM0 58.5V60h8.5v-3H3v-5.5H0v7z" fill="url(#paint0_linear)"/><defs><linearGradient id="paint0_linear" x1="30" y1=".16484" x2="30" y2="60.6593" gradientUnits="userSpaceOnUse"><stop stop-color="#9E90FF"/><stop offset="1" stop-color="#6E5DEC"/></linearGradient></defs></svg>