<svg width="60" height="60" fill="none" xmlns="http://www.w3.org/2000/svg"><path fill-rule="evenodd" clip-rule="evenodd" d="M14.2467 7.00051l4.8907-4.88123L17.014 0l-5.9523 5.94088L10 7.00051l1.0617 1.05964L17.014 14.001l2.1234-2.1192-4.8907-4.88129zm31.5123.00051l-4.8907 4.88128 2.1234 2.1192 5.9523-5.94084 1.0617-1.05964-1.0617-1.05964L42.9917.0005l-2.1234 2.11928 4.8907 4.88124zM28.5 8.5h3v-3h-3v3zm9 .0603h-3v-3h3v3zM3 31.0001v26h54v-26H35v-3h22v-7H35v-3h25v42H0v-42h25v3H3v7h22v3H3zm48-5h3v-3h-3v3zm-3 0h-3v-3h3v3zm-16.4996-8v23.1843l3.3941-3.4573 2.1017 2.1408-5.9472 6.0579-1.0509 1.0703-1.0508-1.0703L23 39.8679l2.1017-2.1408 3.3987 3.4619V18.0001h3zM25.5 8.5603h-3v-3h3v3z" fill="url(#paint0_linear)"/><defs><linearGradient id="paint0_linear" x1="30" y1=".16484" x2="30" y2="60.6593" gradientUnits="userSpaceOnUse"><stop stop-color="#9E90FF"/><stop offset="1" stop-color="#6E5DEC"/></linearGradient></defs></svg>