<svg width="60" height="60" fill="none" xmlns="http://www.w3.org/2000/svg"><path fill-rule="evenodd" clip-rule="evenodd" d="M57 3H3v36h54V3zM3 46v-4h54v4H3zm20 3H0V0h60v49H37v8h3v3H20v-3h3v-8zm11 0v8h-8v-8h8zm-2-33h19v-3H32v3zm19 6H32v-3h19v3zm-19 6h19v-3H32v3zM18 17c1.1046 0 2-.8954 2-2s-.8954-2-2-2-2 .8954-2 2 .8954 2 2 2zm4.0014.9986C22.6285 17.1632 23 16.125 23 15c0-2.7614-2.2386-5-5-5s-5 2.2386-5 5c0 1.125.3716 2.1633.9987 2.9988C11.1946 19.486 9.22082 22.4874 9.01775 26a10.3962 10.3962 0 00-.01729.6l-.00017.9L9 29h18v-2.4c0-.2015-.0058-.4016-.0173-.6-.2031-3.5127-2.177-6.5143-4.9813-8.0014zM12.0307 26h-.0065c.2809-3.5163 3.0081-6 5.976-6 2.968 0 5.6952 2.4837 5.976 6H12.0307z" fill="url(#paint0_linear)"/><defs><linearGradient id="paint0_linear" x1="30" y1=".16484" x2="30" y2="60.6593" gradientUnits="userSpaceOnUse"><stop stop-color="#9E90FF"/><stop offset="1" stop-color="#6E5DEC"/></linearGradient></defs></svg>