<svg width="60" height="60" fill="none" xmlns="http://www.w3.org/2000/svg"><path fill-rule="evenodd" clip-rule="evenodd" d="M51 5c.5523 0 1-.44772 1-1s-.4477-1-1-1-1 .44772-1 1 .4477 1 1 1zm0 3c2.2091 0 4-1.79086 4-4s-1.7909-4-4-4c-2.2091 0-4 1.79086-4 4 0 .60332.1336 1.17543.3727 1.6884l-8.9381 9.5766C37.9893 15.0938 37.5056 15 37 15c-1.0145 0-1.9407.3776-2.6459 1l-7.3665-3.6832C26.9958 12.2123 27 12.1066 27 12c0-2.20914-1.7909-4-4-4-2.2091 0-4 1.79086-4 4 0 .3859.0547.7591.1566 1.1121l-8.167 6.417C10.4036 19.1925 9.72427 19 9 19c-2.20914 0-4 1.7909-4 4 0 2.2091 1.79086 4 4 4 2.2091 0 4-1.7909 4-4 0-.3859-.0547-.7591-.1567-1.1122l8.1671-6.4169C21.5964 15.8075 22.2757 16 23 16c1.0145 0 1.9407-.3776 2.6459-1l7.3665 3.6832A4.05004 4.05004 0 0033 19c0 2.2091 1.7909 4 4 4 2.2091 0 4-1.7909 4-4 0-.6031-.1335-1.175-.3725-1.6878l8.9385-9.57693C50.0112 7.90628 50.4946 8 51 8zM7 51V38h4v13H7zM4 35h10v19H4V35zm17-8v24h4V27h-4zm0-3h-3v30h10V24h-7zm14 27V31h4v20h-4zm-3-23h10v26H32V28zm17-12h-3v38h10V16h-7zm-39 7c0 .5523-.44772 1-1 1s-1-.4477-1-1 .44772-1 1-1 1 .4477 1 1zm13-10c.5523 0 1-.4477 1-1s-.4477-1-1-1-1 .4477-1 1 .4477 1 1 1zm15 6c0 .5523-.4477 1-1 1s-1-.4477-1-1 .4477-1 1-1 1 .4477 1 1zM0 60h60v-3H0v3zm49-41v32h4V19h-4z" fill="#7B69FF"/></svg>